<svg width="192" height="26" viewBox="0 0 192 26" fill="none" xmlns="http://www.w3.org/2000/svg">
<path d="M12.564 5.416H19.548V0.52H0.18V5.416H7.164V25H12.564V5.416ZM36.0667 20.104H27.2827V15.172H35.7067V10.276H27.2827V5.416H36.0667V0.52H21.8827V25H36.0667V20.104ZM49.8788 21.184C47.2148 21.184 44.9108 19.852 44.7668 16.936H39.2948C39.3308 22.912 44.2628 25.576 49.6628 25.576C54.6668 25.576 59.8148 23.452 59.8148 17.692C59.8148 8.368 45.6668 11.5 45.6668 7.144C45.6668 5.308 47.7908 4.588 49.3028 4.588C52.0028 4.588 53.4788 5.416 53.7668 7.972H58.9868C58.8068 2.392 54.2708 0.159998 49.2308 0.159998C44.7668 0.159998 40.0868 2.536 40.0868 7.576C40.0868 16.612 54.2348 13.552 54.2348 18.304C54.2348 20.5 51.5708 21.184 49.8788 21.184ZM72.5546 21.184C69.8906 21.184 67.5866 19.852 67.4426 16.936H61.9706C62.0066 22.912 66.9386 25.576 72.3386 25.576C77.3426 25.576 82.4906 23.452 82.4906 17.692C82.4906 8.368 68.3426 11.5 68.3426 7.144C68.3426 5.308 70.4666 4.588 71.9786 4.588C74.6786 4.588 76.1546 5.416 76.4426 7.972H81.6626C81.4826 2.392 76.9466 0.159998 71.9066 0.159998C67.4426 0.159998 62.7626 2.536 62.7626 7.576C62.7626 16.612 76.9106 13.552 76.9106 18.304C76.9106 20.5 74.2466 21.184 72.5546 21.184ZM99.9104 20.104H91.1264V15.172H99.5504V10.276H91.1264V5.416H99.9104V0.52H85.7264V25H99.9104V20.104ZM109.619 16.252H109.655L115.487 25H122.327L115.307 16C118.403 15.244 120.887 12.508 120.887 8.368C120.887 3.724 117.359 0.52 113.399 0.52H109.619H108.287H104.219V25H109.619V16.252ZM112.499 4.768C114.083 4.768 115.739 6.136 115.739 8.368C115.739 10.708 114.083 12.004 112.499 12.004H109.619V4.768H112.499ZM137.367 15.64H131.175L134.271 6.928L137.367 15.64ZM146.511 25L136.575 0.52H132.003L122.067 25H127.863L129.627 20.068H138.951L140.715 25H146.511ZM164.996 16.684C163.988 18.844 161.54 20.32 159.02 20.32C155.06 20.32 151.892 16.936 151.892 12.76C151.892 8.62 155.06 5.2 159.02 5.2C161.504 5.2 163.952 6.568 164.96 8.764H170.972C169.316 3.76 164.6 0.159998 159.02 0.159998C152.072 0.159998 146.42 5.812 146.42 12.76C146.42 19.708 152.072 25.36 159.02 25.36C164.6 25.36 169.352 21.724 171.008 16.684H164.996ZM184.478 5.416H191.462V0.52H172.094V5.416H179.078V25H184.478V5.416Z" fill="#DDDDDD"/>
</svg>
